<svg xmlns="http://www.w3.org/2000/svg" width="32" height="32" viewBox="0 0 32 32"><!-- Icon from Carbon by IBM - undefined --><path fill="currentColor" d="M28 26c-.178 0-.347.03-.511.074l-1.056-1.055c.352-.595.567-1.28.567-2.019s-.215-1.424-.567-2.019l1.055-1.055c.165.043.334.074.512.074a2 2 0 1 0-2-2c0 .178.03.347.074.512l-1.055 1.055C24.424 19.215 23.739 19 23 19s-1.424.215-2.019.567l-1.055-1.055c.043-.165.074-.334.074-.512a2 2 0 1 0-2 2c.178 0 .347-.03.512-.074l1.055 1.055C19.215 21.576 19 22.261 19 23s.215 1.424.567 2.019l-1.055 1.055A2 2 0 0 0 18 26a2 2 0 1 0 2 2c0-.178-.03-.347-.074-.512l1.055-1.055c.595.352 1.28.567 2.019.567s1.424-.215 2.019-.567l1.055 1.055A2 2 0 0 0 26 28a2 2 0 1 0 2-2m-7-3c0-1.102.897-2 2-2s2 .898 2 2s-.897 2-2 2s-2-.897-2-2"/><circle cx="22" cy="10" r="2" fill="currentColor"/><path fill="currentColor" d="M21 2c-4.963 0-9 4.037-9 9c0 .779.099 1.547.294 2.291L2 23.586V30h6.414l7-7l-2.707-2.707l-1.414 1.414L12.586 23l-1.59 1.59l-1.287-1.295l-1.418 1.41l1.29 1.299L7.587 28H4v-3.586l9.712-9.712l.856-.867l-.199-.585A7.008 7.008 0 0 1 21 4c3.86 0 7.001 3.14 7.001 7h2c0-4.963-4.037-9-9-9Z"/></svg>