<svg xmlns="http://www.w3.org/2000/svg" width="32" height="32" viewBox="0 0 16 16"><!-- Icon from Rivet Icons by Indiana University - https://github.com/indiana-university/rivet-icons/blob/develop/LICENSE --><path fill="currentColor" d="M5 1a3 3 0 0 0-3 3v1.146A2 2 0 0 1 .894 6.935l-.341.17v1.79l.341.17A2 2 0 0 1 2 10.855V12a3 3 0 0 0 3 3h2v-2H5a1 1 0 0 1-1-1v-1.146A4 4 0 0 0 2.803 8A4 4 0 0 0 4 5.146V4a1 1 0 0 1 1-1h2V1zm6 14a3 3 0 0 0 3-3v-1.146a2 2 0 0 1 1.106-1.789l.341-.17v-1.79l-.341-.17A2 2 0 0 1 14 5.145V4a3 3 0 0 0-3-3H9v2h2a1 1 0 0 1 1 1v1.146A4 4 0 0 0 13.197 8A4 4 0 0 0 12 10.854V12a1 1 0 0 1-1 1H9v2z"/></svg>