<svg width="16" height="16" viewBox="0 0 16 16" fill="none"
     xmlns="http://www.w3.org/2000/svg">
    <path
            d="M10.8505 9.41291L8.61967 7.73979V4.3316C8.61967 3.98891 8.34266 3.71191 7.99998 3.71191C7.65729 3.71191 7.38029 3.98891 7.38029 4.3316V8.04966C7.38029 8.24485 7.47201 8.42892 7.62817 8.54541L10.1069 10.4044C10.2138 10.485 10.3441 10.5285 10.478 10.5284C10.667 10.5284 10.8529 10.4435 10.9744 10.2799C11.1802 10.0066 11.1244 9.61804 10.8505 9.41291Z"
            fill="#3C72FC" />
    <path
            d="M8 0C3.58853 0 0 3.58853 0 8C0 12.4115 3.58853 16 8 16C12.4115 16 16 12.4115 16 8C16 3.58853 12.4115 0 8 0ZM8 14.7607C4.27266 14.7607 1.23934 11.7273 1.23934 8C1.23934 4.27266 4.27266 1.23934 8 1.23934C11.728 1.23934 14.7607 4.27266 14.7607 8C14.7607 11.7273 11.7273 14.7607 8 14.7607Z"
            fill="#3C72FC" />
</svg>