<svg xmlns="http://www.w3.org/2000/svg" width="32" height="32" viewBox="0 0 24 24"><path fill="currentColor" d="m19 22.289l-.688-.689l2.055-2.1H15.5v-1h4.867l-2.056-2.1l.689-.688L22.288 19zM5.616 20q-.691 0-1.153-.462T4 18.384V5.616q0-.691.463-1.153T5.616 4h12.769q.69 0 1.153.463T20 5.616v7.811q-.244-.06-.497-.09t-.509-.03q-1.052 0-1.975.368t-1.667.989L12.689 12l2.85-2.85l-.689-.689l-2.85 2.85l-2.85-2.85l-.689.689l2.85 2.85l-2.85 2.85l.689.688l2.85-2.85l2.664 2.664q-.622.744-.989 1.67T13.308 19q0 .256.03.506t.089.494z"/></svg>