<svg xmlns="http://www.w3.org/2000/svg" width="32" height="32" viewBox="0 0 24 24"><path fill="currentColor" d="M16.839 4H7.16c-.527 0-.981 0-1.356.03c-.395.033-.789.104-1.167.297a3 3 0 0 0-1.311 1.311a2 2 0 0 0-.17.604c-.026.174-.046.38-.062.597c-.033.436-.054.975-.067 1.522C3 9.457 3 10.637 3 11.197v.003a1 1 0 1 0 2 0c0-.28 0-.708.003-1.2H19v4.8c0 .577 0 .949-.024 1.232c-.022.272-.06.372-.085.422a1 1 0 0 1-.437.437c-.05.025-.15.063-.422.085C17.75 17 17.377 17 16.8 17H12a1 1 0 1 0 0 2h4.839c.527 0 .982 0 1.356-.03c.395-.033.789-.104 1.167-.297a3 3 0 0 0 1.311-1.311c.193-.378.264-.772.296-1.167c.031-.375.031-.83.031-1.356V8.16c0-.527 0-.981-.03-1.356c-.033-.395-.104-.789-.297-1.167a3 3 0 0 0-1.311-1.311c-.378-.193-.772-.264-1.167-.296A18 18 0 0 0 16.838 4m2.16 4H5.04c.012-.379.029-.727.05-1.013a7 7 0 0 1 .055-.503a1 1 0 0 1 .402-.375c.05-.025.15-.063.422-.085C6.25 6 6.623 6 7.2 6h9.6c.577 0 .949 0 1.232.024c.272.022.372.06.422.085a1 1 0 0 1 .437.437c.025.05.063.15.085.422c.02.249.024.567.024 1.032"/><path fill="currentColor" d="m9.314 15.877l-.72.7c.452.853.31 1.925-.429 2.641l-1.148 1.114a2.41 2.41 0 0 1-3.33 0a2.22 2.22 0 0 1 0-3.21l.72-.698a2.22 2.22 0 0 1 .428-2.642l1.148-1.114a2.41 2.41 0 0 1 3.33 0a2.22 2.22 0 0 1 0 3.21m-.651-.61a1.377 1.377 0 0 0 0-1.988a1.465 1.465 0 0 0-2.029 0l-1.149 1.114a1.38 1.38 0 0 0-.368 1.382a2.42 2.42 0 0 1 2.909.11zM7.374 16.5a1.47 1.47 0 0 0-1.748 0a1.47 1.47 0 0 0 1.748 0m-3.037 1.233a1.377 1.377 0 0 0 0 1.988a1.465 1.465 0 0 0 2.029 0l1.149-1.114c.385-.373.508-.906.368-1.382a2.42 2.42 0 0 1-2.909-.11zM14 13a1 1 0 1 0 0 2h3a1 1 0 1 0 0-2z"/></svg>