<svg width="28" height="28" viewBox="0 0 28 28" fill="none" xmlns="http://www.w3.org/2000/svg">    <path d="M5.83317 17.5C3.2665 17.5 1.1665 19.6 1.1665 22.1666C1.1665 23.1 1.39984 23.9166 1.8665 24.6166C2.68317 25.9 4.08317 26.8333 5.83317 26.8333C7.58317 26.8333 8.98317 25.9 9.79984 24.6166C10.2665 23.9166 10.4998 23.1 10.4998 22.1666C10.4998 19.6 8.39984 17.5 5.83317 17.5ZM7.58317 22.9833H6.7665V23.9166C6.7665 24.3833 6.4165 24.85 5.83317 24.85C5.24984 24.85 4.89984 24.5 4.89984 23.9166V22.9833H4.08317C3.6165 22.9833 3.14984 22.6333 3.14984 22.05C3.14984 21.4666 3.49984 21.1166 4.08317 21.1166H4.89984V20.3C4.89984 19.8333 5.24984 19.3666 5.83317 19.3666C6.4165 19.3666 6.7665 19.7166 6.7665 20.3V21.1166H7.58317C8.04984 21.1166 8.5165 21.4666 8.5165 22.05C8.5165 22.6333 8.04984 22.9833 7.58317 22.9833ZM25.0832 14.5833H22.1665C20.8832 14.5833 19.8332 15.6333 19.8332 16.9166C19.8332 18.2 20.8832 19.25 22.1665 19.25H25.0832C25.4332 19.25 25.6665 19.0166 25.6665 18.6666V15.1666C25.6665 14.8166 25.4332 14.5833 25.0832 14.5833Z" fill="url(#paint0_linear_6415_112)"/>    <path d="M19.2499 6.30001C19.5999 6.65001 19.2499 7.11667 18.7832 7.11667H9.09986C8.51653 7.11667 8.2832 6.41667 8.6332 6.06667L10.7332 3.96667C12.4832 2.21667 15.2832 2.21667 17.0332 3.96667L19.2499 6.30001Z" fill="url(#paint1_linear_6415_112)"/>    <path d="M25.5497 21.8167C24.8497 24.2667 22.7497 25.6667 19.9497 25.6667H12.3664C11.8997 25.6667 11.6664 25.2 11.783 24.7334C12.133 23.9167 12.3664 22.9834 12.3664 22.1667C12.3664 18.6667 9.44971 15.75 5.94971 15.75C5.01637 15.75 4.19971 15.9834 3.38304 16.3334C2.91637 16.5667 2.44971 16.2167 2.44971 15.75V14C2.44971 10.85 4.31637 8.63335 7.34971 8.28335C7.69971 8.16669 7.93304 8.16669 8.28304 8.16669H19.9497C20.2997 8.16669 20.533 8.16669 20.883 8.28335C23.2164 8.51669 24.9664 10.0334 25.5497 12.1334C25.6664 12.4834 25.433 12.95 24.9664 12.95H22.283C19.7164 12.95 17.733 15.2834 18.3164 17.85C18.6664 19.7167 20.4164 21.1167 22.3997 21.1167H24.9664C25.3164 21 25.6664 21.35 25.5497 21.8167Z" fill="url(#paint2_linear_6415_112)"/>    <defs>        <linearGradient id="paint0_linear_6415_112" x1="13.4165" y1="2.65415" x2="13.4165" y2="26.8333" gradientUnits="userSpaceOnUse">            <stop stop-color="#0787CF"/>            <stop offset="1" stop-color="#0071FF" stop-opacity="0.56"/>        </linearGradient>        <linearGradient id="paint1_linear_6415_112" x1="13.5752" y1="3.11267" x2="13.5752" y2="27.0865" gradientUnits="userSpaceOnUse">            <stop stop-color="#4663EE"/>            <stop offset="1" stop-color="#0071FF" stop-opacity="0.56"/>        </linearGradient>        <linearGradient id="paint2_linear_6415_112" x1="14.002" y1="8.16669" x2="14.002" y2="25.6667" gradientUnits="userSpaceOnUse">            <stop stop-color="#4663EE"/>            <stop offset="1" stop-color="#0071FF" stop-opacity="0.56"/>        </linearGradient>    </defs></svg>