<svg width="30" height="30" viewBox="0 0 30 30" fill="none" xmlns="http://www.w3.org/2000/svg">    <g clip-path="url(#clip0_6689_1343)">        <path d="M28.8829 24.8899C29.4079 24.4244 29.7405 23.7466 29.7434 22.9921C29.7488 21.584 28.5523 20.4322 27.1442 20.4322H26.8653C26.8634 20.4322 26.8627 20.4299 26.8641 20.4288C28.4179 19.2667 29.4256 17.4112 29.4256 15.3244C29.4256 11.8131 26.5725 8.9563 23.0655 8.9563C22.516 8.95604 21.9688 9.02721 21.4377 9.16803C21.4373 9.16812 21.4369 9.1681 21.4366 9.16796C21.4362 9.16782 21.4359 9.16758 21.4357 9.16726C21.0783 8.64207 19.4002 6.54928 18.893 6.07505C18.8917 6.0739 18.8926 6.07178 18.8943 6.07178H20.0909C20.4131 6.07178 20.7018 5.84339 20.7469 5.52435C20.8028 5.12878 20.4973 4.78975 20.1125 4.78975H17.8921C17.8918 4.78975 17.8914 4.78968 17.8912 4.78955C17.8909 4.78941 17.8907 4.78922 17.8905 4.78897C17.8903 4.78873 17.8902 4.78844 17.8901 4.78814C17.8901 4.78785 17.8901 4.78754 17.8902 4.78725L19.1082 0.829669L19.1083 0.829477C19.1831 0.346919 18.9789 0.0705119 18.4958 0H7.40135C6.91642 0.071217 6.71258 0.348842 6.78995 0.832874V0.833066C6.79123 0.837169 7.16616 2.031 7.54212 3.22515C7.7193 3.78777 7.89616 4.34886 8.03481 4.78731C8.03519 4.78853 8.03423 4.78975 8.03295 4.78975H5.80625C5.48401 4.78975 5.19536 5.01814 5.15023 5.33718C5.09427 5.73275 5.39984 6.07178 5.78464 6.07178H7.05969C7.06142 6.07178 7.06226 6.0739 7.06097 6.07505C6.55213 6.5503 6.07137 7.07337 5.64567 7.62016C1.55553 12.8483 -0.346881 18.9417 0.425673 24.339C0.759964 27.0636 2.90026 29.0462 5.88246 29.3949C10.5622 30.2026 15.4089 30.2017 20.0883 29.3919C20.1373 29.3834 27.1441 29.3504 27.1441 29.3504C28.5522 29.3504 29.7488 28.1986 29.7434 26.7905C29.7405 26.036 29.4079 25.3581 28.8829 24.8927C28.8827 24.8925 28.8826 24.8923 28.8825 24.8921C28.8824 24.8918 28.8823 24.8916 28.8823 24.8913C28.8823 24.8911 28.8824 24.8908 28.8825 24.8906C28.8826 24.8903 28.8827 24.8901 28.8829 24.8899ZM28.4561 23.099C28.3969 23.7573 27.8234 24.2503 27.1625 24.2503H18.9685C18.3075 24.2503 17.734 23.7572 17.6748 23.0989C17.6073 22.3475 18.1999 21.7143 18.9376 21.7143H27.1933C27.931 21.7143 28.5236 22.3475 28.4561 23.099ZM28.1436 15.3244C28.1436 18.1289 25.8655 20.4105 23.0655 20.4105C20.2654 20.4105 17.9873 18.1289 17.9873 15.3244C17.9873 12.52 20.2654 10.2383 23.0655 10.2383C25.8655 10.2383 28.1436 12.52 28.1436 15.3244ZM17.6269 1.28454L16.5485 4.78847C16.5484 4.78886 16.5482 4.7892 16.5478 4.78945C16.5475 4.78969 16.5471 4.78982 16.5467 4.78981H9.38178C9.38138 4.78981 9.381 4.78968 9.38068 4.78945C9.38036 4.78922 9.38011 4.7889 9.37998 4.78853C9.15351 4.07476 8.68576 2.58933 8.27564 1.28454C8.27555 1.28425 8.27553 1.28394 8.27558 1.28364C8.27563 1.28334 8.27575 1.28305 8.27593 1.28281C8.27611 1.28257 8.27635 1.28237 8.27662 1.28223C8.27689 1.2821 8.27719 1.28203 8.2775 1.28204H17.6251C17.6254 1.28203 17.6257 1.2821 17.6259 1.28223C17.6262 1.28237 17.6265 1.28257 17.6266 1.28281C17.6268 1.28305 17.6269 1.28334 17.627 1.28364C17.627 1.28394 17.627 1.28425 17.6269 1.28454ZM6.08317 28.1287C6.0711 28.1266 6.05898 28.1249 6.04682 28.1235C3.66275 27.8504 1.95553 26.3015 1.69739 24.1774C1.69686 24.1728 1.69626 24.1682 1.69559 24.1636C0.969833 19.1086 2.77763 13.3667 6.65636 8.40906C7.35373 7.51337 8.20961 6.69004 9.083 6.07223C9.08333 6.07197 9.08374 6.07184 9.08415 6.07185H12.0415C12.0418 6.07184 12.0422 6.07194 12.0425 6.07212C12.0428 6.0723 12.043 6.07256 12.0432 6.07287C12.0434 6.07318 12.0434 6.07353 12.0434 6.07388C12.0434 6.07423 12.0433 6.07457 12.0431 6.07486L9.80696 9.2904C9.62299 9.55494 9.64581 9.92237 9.88203 10.1415C10.175 10.4131 10.6276 10.3559 10.8472 10.0399L13.2384 6.60152C13.2386 6.60127 13.2388 6.60106 13.2391 6.60092C13.2394 6.60078 13.2397 6.60071 13.24 6.60071C13.2403 6.60071 13.2406 6.60078 13.2408 6.60092C13.2411 6.60106 13.2414 6.60127 13.2415 6.60152L15.6327 10.0399C15.9436 10.3729 16.2685 10.4037 16.6077 10.1322C16.8357 9.91205 16.8547 9.55167 16.6737 9.29149L14.4368 6.07492C14.4366 6.07463 14.4365 6.07429 14.4365 6.07394C14.4365 6.07359 14.4366 6.07324 14.4367 6.07293C14.4369 6.07262 14.4371 6.07236 14.4374 6.07218C14.4377 6.072 14.4381 6.07191 14.4384 6.07191H16.8693C16.8697 6.07191 16.8701 6.07204 16.8705 6.0723C17.7397 6.68524 19.9123 9.22129 20.202 9.63706C20.2022 9.63728 20.2023 9.63753 20.2023 9.6378C20.2024 9.63806 20.2023 9.63833 20.2023 9.63859C20.2022 9.63885 20.2021 9.63909 20.2019 9.6393C20.2018 9.63951 20.2016 9.63969 20.2013 9.63981C18.1292 10.6907 16.7053 12.8441 16.7053 15.3245C16.7053 17.4113 17.713 19.2668 19.2668 20.429C19.2683 20.4301 19.2675 20.4324 19.2656 20.4324H18.9868C17.5786 20.4324 16.3821 21.5842 16.3875 22.9924C16.3904 23.7468 16.723 24.4246 17.248 24.8901C17.2482 24.8902 17.2483 24.8905 17.2484 24.8907C17.2485 24.8909 17.2486 24.8912 17.2486 24.8914C17.2486 24.8917 17.2485 24.892 17.2484 24.8922C17.2483 24.8924 17.2482 24.8927 17.248 24.8928C16.7207 25.3603 16.3875 26.042 16.3875 26.8005C16.3875 27.4571 16.637 28.0565 17.0461 28.509C17.0471 28.5102 17.0464 28.512 17.0449 28.5121C13.4004 28.8751 9.66088 28.7477 6.08317 28.1287ZM27.1933 28.0684H18.9686C18.3078 28.0684 17.734 27.5753 17.6748 26.917C17.6073 26.1656 18.1999 25.5323 18.9376 25.5323H27.1622C27.8231 25.5323 28.3969 26.0254 28.456 26.6836C28.5236 27.4351 27.931 28.0684 27.1933 28.0684Z" fill="#384BFF"/>        <path d="M22.8271 15.9589H23.3036C23.6522 15.9589 23.9359 16.2433 23.9359 16.5929V16.6056C23.9359 16.9552 23.6522 17.2396 23.3036 17.2396H21.4294C21.4289 17.2396 21.4284 17.2399 21.428 17.2402C21.4277 17.2406 21.4275 17.2411 21.4275 17.2416V18.5198C21.4275 18.5208 21.4283 18.5217 21.4294 18.5217H22.4224C22.4229 18.5217 22.4234 18.5219 22.4238 18.5222C22.4242 18.5226 22.4244 18.5231 22.4244 18.5236V19.3315C22.4244 19.3326 22.4252 19.3334 22.4263 19.3334H23.7045C23.705 19.3334 23.7055 19.3332 23.7058 19.3328C23.7062 19.3325 23.7064 19.332 23.7064 19.3315V18.4801C23.7064 18.4797 23.7065 18.4793 23.7068 18.479C23.7071 18.4786 23.7075 18.4784 23.7079 18.4783C24.5699 18.292 25.2179 17.5233 25.2179 16.6056V16.5929C25.2179 15.5365 24.3592 14.6769 23.3036 14.6769H22.8271C22.4785 14.6769 22.1949 14.3924 22.1949 14.0428C22.1949 13.6932 22.4785 13.4087 22.8271 13.4087H24.7014C24.7019 13.4087 24.7024 13.4085 24.7027 13.4082C24.7031 13.4078 24.7033 13.4073 24.7033 13.4068V12.1286C24.7033 12.1281 24.7031 12.1276 24.7027 12.1273C24.7024 12.1269 24.7019 12.1267 24.7014 12.1267H23.7083C23.7078 12.1267 23.7073 12.1265 23.707 12.1261C23.7066 12.1258 23.7064 12.1253 23.7064 12.1248V11.3174C23.7064 11.3168 23.7062 11.3164 23.7058 11.316C23.7055 11.3156 23.705 11.3154 23.7045 11.3154H22.4263C22.4258 11.3154 22.4253 11.3156 22.4249 11.316C22.4246 11.3164 22.4244 11.3168 22.4244 11.3174V12.1682C22.4244 12.1687 22.4242 12.1691 22.4239 12.1694C22.4237 12.1698 22.4233 12.17 22.4229 12.1701C21.5608 12.3564 20.9128 13.1251 20.9128 14.0428C20.9128 15.0994 21.7716 15.9589 22.8271 15.9589Z" fill="#384BFF"/>    </g>    <defs>        <clipPath id="clip0_6689_1343">            <rect width="30" height="30" fill="white"/>        </clipPath>    </defs></svg>