<svg width="28" height="28" viewBox="0 0 28 28" fill="none" xmlns="http://www.w3.org/2000/svg">    <path d="M23.1376 7.9441L15.3523 11.2866C15.2181 11.3429 15.0721 11.3653 14.9272 11.3518C14.7823 11.3384 14.6429 11.2894 14.5214 11.2094C14.3999 11.1293 14.2999 11.0205 14.2304 10.8927C14.1608 10.7649 14.1238 10.6219 14.1225 10.4764V8.81385C10.8649 8.66598 6.84165 9.90323 4.23284 12.8459L4.19434 11.6677C4.50059 8.10029 8.35934 3.91166 14.4821 3.90335V2.63504C14.4834 2.48265 14.524 2.33317 14.5998 2.20101C14.6757 2.06884 14.7843 1.95846 14.9153 1.8805C15.0462 1.80254 15.195 1.75964 15.3474 1.75594C15.4997 1.75223 15.6504 1.78785 15.785 1.85935L23.2405 5.94735C23.4205 6.05006 23.5685 6.20074 23.668 6.3826C23.7674 6.56447 23.8145 6.77037 23.8038 6.97738C23.7931 7.18439 23.7252 7.38438 23.6076 7.55506C23.49 7.72575 23.3273 7.86043 23.1376 7.9441ZM5.29552 13.0712L4.49009 13.9217C4.8718 15.0047 5.49113 15.9884 6.30265 16.8009C6.36424 16.8588 6.44149 16.8974 6.52481 16.9119C6.60813 16.9264 6.69387 16.9161 6.77141 16.8823C6.84895 16.8486 6.91488 16.7928 6.96104 16.7219C7.00719 16.6511 7.03155 16.5682 7.03109 16.4837C6.93221 14.6899 7.37671 12.106 7.84484 11.0805C7.73896 11.1374 7.63148 11.1981 7.5224 11.2625C6.6995 11.7588 5.94997 12.3675 5.29552 13.0712ZM4.75959 22.0526L12.215 26.1402C12.3496 26.2115 12.5002 26.2471 12.6524 26.2433C12.8047 26.2396 12.9534 26.1967 13.0843 26.1188C13.2151 26.0409 13.3237 25.9307 13.3996 25.7986C13.4755 25.6666 13.5161 25.5172 13.5175 25.3649V24.0962C19.6407 24.0883 23.499 19.8997 23.8057 16.3323L23.7672 15.1541C21.1584 18.0963 17.1347 19.334 13.8775 19.1861V17.5236C13.8762 17.3782 13.8391 17.2353 13.7695 17.1076C13.7 16.9798 13.6 16.8712 13.4786 16.7912C13.3571 16.7112 13.2178 16.6623 13.073 16.6488C12.9282 16.6353 12.7823 16.6576 12.6481 16.7138L4.8624 20.0559C4.67275 20.1395 4.51006 20.2742 4.39245 20.4449C4.27483 20.6156 4.20691 20.8156 4.19625 21.0226C4.18559 21.2296 4.23261 21.4355 4.33208 21.6174C4.43154 21.7992 4.57954 21.9499 4.75959 22.0526ZM22.7045 14.9288L23.51 14.0783C23.1283 12.9953 22.5089 12.0115 21.6974 11.1991C21.6358 11.1412 21.5586 11.1025 21.4752 11.0881C21.3919 11.0736 21.3062 11.0838 21.2286 11.1176C21.1511 11.1514 21.0852 11.2071 21.039 11.278C20.9929 11.3489 20.9685 11.4317 20.969 11.5163C21.0678 13.31 20.6233 15.8939 20.1552 16.9194C20.2611 16.8625 20.3686 16.8019 20.4776 16.7374C21.3005 16.2412 22.0501 15.6324 22.7045 14.9288Z" fill="url(#paint0_linear_6415_119)"/>    <defs>        <linearGradient id="paint0_linear_6415_119" x1="4.19434" y1="14" x2="23.8057" y2="14" gradientUnits="userSpaceOnUse">            <stop stop-color="#00C0FF"/>            <stop offset="1" stop-color="#5558FF"/>        </linearGradient>    </defs></svg>