<svg width="28" height="28" viewBox="0 0 28 28" fill="none" xmlns="http://www.w3.org/2000/svg">    <g clip-path="url(#clip0_6415_140)">        <path d="M20.5625 21.4375V2.46095C20.5625 2.24767 20.4805 2.03439 20.3164 1.88668L18.6757 0.246053C18.364 -0.0820176 17.8391 -0.0820176 17.5273 0.246053L16.4609 1.29605L15.3945 0.246053C15.0828 -0.0820176 14.5579 -0.0820176 14.2461 0.246053L13.1797 1.29605L12.1132 0.246053C11.8015 -0.0820176 11.2766 -0.0820176 10.9648 0.246053L9.89844 1.29605L8.83198 0.246053C8.52026 -0.0820176 7.99537 -0.0820176 7.68359 0.246053L6.61719 1.29605L5.55073 0.246053C5.23901 -0.0820176 4.71412 -0.0820176 4.40234 0.246053L2.76172 1.88668C2.59766 2.03439 2.51562 2.24762 2.51562 2.46095V24.7188C2.51562 26.5234 3.99224 28 5.79688 28H23.0234L20.5625 21.4375Z" fill="url(#paint0_linear_6415_140)"/>        <path d="M24.6641 21.4375H20.5625V25.5391C20.5625 26.9007 21.6617 28 23.0234 28C24.3524 28 25.4844 26.9268 25.4844 25.5391V22.2578C25.4844 21.7984 25.1235 21.4375 24.6641 21.4375ZM16.4609 14.875H6.61719C6.16377 14.875 5.79688 15.2419 5.79688 15.6953C5.79688 16.1487 6.16377 16.5156 6.61719 16.5156H16.4609C16.9144 16.5156 17.2812 16.1487 17.2812 15.6953C17.2812 15.2419 16.9144 14.875 16.4609 14.875ZM16.4609 18.1563H6.61719C6.16377 18.1563 5.79688 18.5232 5.79688 18.9766C5.79688 19.43 6.16377 19.7969 6.61719 19.7969H16.4609C16.9144 19.7969 17.2812 19.43 17.2812 18.9766C17.2812 18.5232 16.9144 18.1563 16.4609 18.1563ZM16.4609 21.4375H6.61719C6.16377 21.4375 5.79688 21.8044 5.79688 22.2578C5.79688 22.7112 6.16377 23.0781 6.61719 23.0781H16.4609C16.9144 23.0781 17.2812 22.7112 17.2812 22.2578C17.2812 21.8044 16.9144 21.4375 16.4609 21.4375ZM9.65814 12.994L14.58 8.07216C14.9004 7.75175 14.9004 7.2326 14.58 6.91219C14.2596 6.59177 13.7405 6.59177 13.42 6.91219L8.49816 11.8341C8.17775 12.1545 8.17775 12.6736 8.49816 12.994C8.81858 13.3145 9.33767 13.3145 9.65814 12.994ZM9.07812 8.31251C9.53116 8.31251 9.89844 7.94523 9.89844 7.4922C9.89844 7.03917 9.53116 6.67189 9.07812 6.67189C8.62509 6.67189 8.25781 7.03917 8.25781 7.4922C8.25781 7.94523 8.62509 8.31251 9.07812 8.31251ZM13.1797 12.4141C13.1797 12.8671 13.547 13.2344 14 13.2344C14.453 13.2344 14.8203 12.8671 14.8203 12.4141C14.8203 11.961 14.453 11.5938 14 11.5938C13.547 11.5938 13.1797 11.961 13.1797 12.4141Z" fill="url(#paint1_linear_6415_140)"/>    </g>    <defs>        <linearGradient id="paint0_linear_6415_140" x1="12.7695" y1="28" x2="12.7695" y2="1.33514e-05" gradientUnits="userSpaceOnUse">            <stop stop-color="#5558FF"/>            <stop offset="1" stop-color="#00C0FF"/>        </linearGradient>        <linearGradient id="paint1_linear_6415_140" x1="15.6406" y1="28" x2="15.6406" y2="6.67189" gradientUnits="userSpaceOnUse">            <stop stop-color="#ADDCFF"/>            <stop offset="0.503" stop-color="#EAF6FF"/>            <stop offset="1" stop-color="#EAF6FF"/>        </linearGradient>        <clipPath id="clip0_6415_140">            <rect width="28" height="28" fill="white"/>        </clipPath>    </defs></svg>