<svg xmlns="http://www.w3.org/2000/svg" width="32" height="32" viewBox="0 0 16 16"><!-- Icon from Qlementine Icons by Olivier Cléro - https://github.com/oclero/qlementine-icons/blob/master/LICENSE --><path fill="currentColor" d="M6.35 8.85a.5.5 0 0 0-.707-.707l-1.5 1.5a.5.5 0 0 0 0 .707l1.5 1.5a.5.5 0 0 0 .707-.707L5.2 9.993l1.15-1.15zM8.6 7.01a.5.5 0 0 1 .392.588l-1 5a.5.5 0 0 1-.98-.196l1-5A.5.5 0 0 1 8.6 7.01m3.3 2.64l-1.5-1.5a.5.5 0 0 0-.707.707l1.15 1.15l-1.15 1.15a.5.5 0 0 0 .707.707l1.5-1.5a.5.5 0 0 0 0-.707z"/><path fill="currentColor" fill-rule="evenodd" d="M2 3c0-1.1.895-2 2-2h5.5c.133 0 .26.053.354.146l4 4A.5.5 0 0 1 14 5.5V13c0 1.1-.895 2-2 2H4c-1.1 0-2-.895-2-2zm2-1a1 1 0 0 0-1 1v10a1 1 0 0 0 1 1h8a1 1 0 0 0 1-1V6H9.5a.5.5 0 0 1-.5-.5V2zm6 .707l2.29 2.29H10z" clip-rule="evenodd"/></svg>