<svg xmlns="http://www.w3.org/2000/svg" width="32" height="32" viewBox="0 0 512 512"><!-- Icon from Siemens Industrial Experience Icons by Siemens AG - https://github.com/siemens/ix-icons/blob/main/LICENSE.md --><path fill="currentColor" fill-rule="evenodd" d="m469.342 305.866l-.009-199.199H42.666v298.666l217.752.004A117.4 117.4 0 0 1 256 373.333c0-25.122 7.895-48.4 21.339-67.488l-.006-156.512h21.334l.009 133.479c12.355-10.202 26.834-17.923 42.675-22.4l-.018-111.079h21.334l.008 107.145c3.51-.316 7.065-.478 10.658-.478c11.095 0 21.83 1.54 32.004 4.418l-.004-111.085h21.334l.008 119.465a117.9 117.9 0 0 1 42.667 37.068M85.333 149.333H128v213.334H85.333zm128 0h21.334v213.334h-21.334zm160 128c-53.019 0-96 42.981-96 96c0 53.02 42.981 96 96 96s96-42.98 96-96c0-53.019-42.981-96-96-96m-18.855 96.001l-38.572-38.571l18.856-18.857l38.572 38.572l38.572-38.572l18.856 18.857l-38.572 38.571l38.572 38.572l-18.856 18.857l-38.572-38.572l-38.572 38.572l-18.856-18.857z" clip-rule="evenodd"/></svg>