<svg width="32" height="32" viewBox="0 0 32 32" fill="none"
     xmlns="http://www.w3.org/2000/svg">
    <path fill-rule="evenodd" clip-rule="evenodd"
          d="M16 1.66667C11.036 1.66667 7 5.73867 7 10.7613C7 12.4627 7.74933 14.5733 8.84 16.6787C11.2413 21.3147 15.2413 25.984 15.2413 25.984C15.3352 26.0933 15.4516 26.1811 15.5826 26.2412C15.7135 26.3014 15.8559 26.3325 16 26.3325C16.1441 26.3325 16.2865 26.3014 16.4174 26.2412C16.5484 26.1811 16.6648 26.0933 16.7587 25.984C16.7587 25.984 20.7587 21.3147 23.16 16.6787C24.2507 14.5733 25 12.4627 25 10.7613C25 5.73867 20.964 1.66667 16 1.66667ZM16 7.00001C15.0447 7.02577 14.1371 7.42338 13.4705 8.10821C12.8039 8.79303 12.4309 9.71098 12.4309 10.6667C12.4309 11.6224 12.8039 12.5403 13.4705 13.2251C14.1371 13.91 15.0447 14.3076 16 14.3333C16.9553 14.3076 17.8629 13.91 18.5295 13.2251C19.1961 12.5403 19.5691 11.6224 19.5691 10.6667C19.5691 9.71098 19.1961 8.79303 18.5295 8.10821C17.8629 7.42338 16.9553 7.02577 16 7.00001Z"
          fill="#3C72FC" />
    <path fill-rule="evenodd" clip-rule="evenodd"
          d="M22.3774 23.1693C23.4614 23.4947 24.3547 23.8973 24.972 24.3693C25.372 24.6733 25.6654 24.9707 25.6654 25.3333C25.6654 25.5467 25.544 25.74 25.3734 25.9333C25.0907 26.252 24.6707 26.5387 24.1507 26.8053C22.3134 27.7453 19.3427 28.3333 15.9987 28.3333C12.6547 28.3333 9.68403 27.7453 7.8467 26.8053C7.3267 26.5387 6.9067 26.252 6.62403 25.9333C6.45336 25.74 6.33203 25.5467 6.33203 25.3333C6.33203 24.9707 6.62536 24.6733 7.02536 24.3693C7.6427 23.8973 8.53603 23.4947 9.62003 23.1693C9.87411 23.093 10.0874 22.9188 10.2131 22.6851C10.3387 22.4514 10.3664 22.1774 10.29 21.9233C10.2136 21.6693 10.0395 21.4559 9.80579 21.3303C9.57212 21.2046 9.29811 21.177 9.04403 21.2533C7.39336 21.7507 6.1107 22.432 5.34003 23.1853C4.6627 23.8453 4.33203 24.584 4.33203 25.3333C4.33203 26.2693 4.86136 27.2027 5.93736 27.9813C7.82536 29.3467 11.6174 30.3333 15.9987 30.3333C20.38 30.3333 24.172 29.3467 26.06 27.9813C27.136 27.2027 27.6654 26.2693 27.6654 25.3333C27.6654 24.584 27.3347 23.8453 26.6574 23.1853C25.8867 22.432 24.604 21.7507 22.9534 21.2533C22.8276 21.2155 22.6955 21.2028 22.5648 21.2161C22.4341 21.2293 22.3073 21.2681 22.1916 21.3303C22.0759 21.3925 21.9736 21.4769 21.8905 21.5787C21.8074 21.6804 21.7452 21.7975 21.7074 21.9233C21.6695 22.0491 21.6569 22.1812 21.6701 22.3119C21.6833 22.4426 21.7221 22.5694 21.7843 22.6851C21.8465 22.8008 21.9309 22.9031 22.0327 22.9862C22.1344 23.0693 22.2516 23.1315 22.3774 23.1693Z"
          fill="#3C72FC" />
</svg>