<svg xmlns="http://www.w3.org/2000/svg" width="32" height="32" viewBox="0 0 24 24"><path fill="currentColor" d="M11.435 8.012L9.772 6.349q-.238-.238-.238-.56t.243-.566l1.663-1.662q.237-.238.56-.238t.565.243l1.663 1.662q.237.238.237.56t-.242.566L12.56 8.016q-.237.238-.56.238t-.565-.242M2.826 19.385q-.343 0-.575-.232q-.233-.233-.233-.576v-2.693q0-.6.395-1.03t.97-.47h2.891q.404 0 .767.193q.364.192.6.56q.764 1.07 1.903 1.66q1.14.588 2.455.588q1.324 0 2.471-.589q1.148-.588 1.906-1.66q.248-.367.605-.559q.356-.192.743-.192h2.89q.581.038.983.469q.402.43.402 1.03v2.693q0 .343-.232.576q-.233.232-.576.232h-4.384q-.344 0-.576-.232Q16 18.92 16 18.577v-1.621q-.837.683-1.863 1.056t-2.142.373q-1.09 0-2.1-.368q-1.012-.367-1.876-1.048v1.608q0 .343-.232.576t-.576.232zm1.752-6.77q-1.021 0-1.762-.74q-.74-.74-.74-1.762q0-1.042.74-1.77q.74-.727 1.762-.727q1.042 0 1.77.727q.728.728.728 1.77q0 1.022-.728 1.762t-1.77.74m14.846 0q-1.021 0-1.761-.74q-.741-.74-.741-1.762q0-1.042.74-1.77q.74-.727 1.762-.727q1.042 0 1.77.727q.728.728.728 1.77q0 1.022-.728 1.762t-1.77.74"/></svg>