<svg xmlns="http://www.w3.org/2000/svg" width="32" height="32" viewBox="0 0 24 24"><g fill="none" stroke-linecap="round" stroke-linejoin="round" stroke-width="1.5" color="currentColor"><path stroke="currentColor" d="m16.5 17l.999 1m0 0l1.001 1m-1.001-1l1.001-1m-1.001 1l-.999 1m5-1a4 4 0 1 1-8 0a4 4 0 0 1 8 0"/><path fill="currentColor" d="M6.953 17.487a.75.75 0 1 0 1.094 1.026zm3.626-.241a.75.75 0 1 0-.158-1.492zm-7.054 3.783l-.516.544zM18.475 4.97l-.516.545zm-14.95 0l.516.545zm4.978-.22a.75.75 0 1 0-.006-1.5zm5-1.5a.75.75 0 1 0-.006 1.5zM18.75 12a.75.75 0 0 0 1.5 0zM10.5 22.75a.75.75 0 0 0 0-1.5zM8.969 5.83l.39-.642zm-.28-1.838l-.73-.17zm-.127 1.386l-.683.31zm4.75-1.386l.73-.17zm.126 1.386l.683.31zm-.407.451l.39.641zm-1.122-3.782l-.169.73zm1.319 1.585l-.73.169zm-.236-.792l-.659.358zm-2.9-.793l.168.73zm-1.32 1.585l.73.169zm.236-.792l.66.358zM12.25 12c0 .702-.557 1.25-1.219 1.25v1.5c1.513 0 2.719-1.242 2.719-2.75zm-1.219 1.25c-.661 0-1.218-.548-1.218-1.25h-1.5c0 1.508 1.206 2.75 2.718 2.75zM9.814 12c0-.702.557-1.25 1.218-1.25v-1.5c-1.512 0-2.718 1.242-2.718 2.75zm1.218-1.25c.662 0 1.219.548 1.219 1.25h1.5c0-1.508-1.206-2.75-2.719-2.75zm-2.984 7.763a4.06 4.06 0 0 1 2.532-1.267l-.158-1.492a5.56 5.56 0 0 0-3.468 1.733zM3.25 15.368v-4.736h-1.5v4.736zM9.5 21.25c-1.67 0-2.851-.001-3.746-.115c-.877-.112-1.364-.32-1.713-.65l-1.032 1.088c.677.641 1.527.918 2.556 1.05c1.011.128 2.305.127 3.935.127zm-7.75-5.882c0 1.541-.002 2.776.136 3.744c.14.994.441 1.815 1.123 2.461l1.032-1.089c-.343-.325-.555-.77-.67-1.583c-.12-.838-.121-1.947-.121-3.533zm18.5-4.736c0-1.541.002-2.776-.136-3.744c-.14-.994-.441-1.815-1.123-2.461l-1.032 1.089c.343.325.555.77.67 1.583c.12.838.121 1.947.121 3.533zm-17 0c0-1.586.002-2.695.12-3.533c.116-.812.328-1.258.67-1.583l-1.03-1.09c-.683.647-.983 1.468-1.124 2.462c-.138.968-.136 2.203-.136 3.744zm5.247-7.38c-1.314.004-2.388.028-3.256.173c-.886.147-1.628.43-2.232 1.002l1.032 1.089c.312-.296.735-.493 1.446-.612c.73-.121 1.686-.148 3.016-.153zm5 1.5c1.33.004 2.286.031 3.016.152c.711.119 1.134.316 1.446.612l1.032-1.09c-.604-.571-1.346-.854-2.232-1.001c-.868-.145-1.942-.169-3.256-.174zm5.253 5.88V12h1.5v-1.368zM10.5 21.25h-1v1.5h1zM12.497 3.8l.083.36l1.462-.337l-.083-.36zm-.999 1.45h-.996v1.5h.996zM9.42 4.16l.083-.36l-1.462-.337l-.083.36zm1.082 1.09c-.431 0-.705 0-.908-.019a1.2 1.2 0 0 1-.228-.04l-.008-.003L8.58 6.47c.285.173.594.23.883.256c.284.025.635.024 1.039.024zM7.958 3.823c-.081.351-.157.673-.19.942c-.033.279-.035.601.111.923l1.366-.62c.018.04-.006.036.013-.123c.02-.17.073-.4.162-.784zm1.4 1.365a.3.3 0 0 1-.113-.12l-1.366.62c.15.33.398.598.7.782zm3.222-1.027c.09.384.141.614.162.784c.02.16-.005.162.013.123l1.366.62c.146-.322.144-.644.11-.923c-.032-.269-.108-.59-.19-.942zM11.498 6.75c.404 0 .755 0 1.04-.024c.288-.026.597-.083.882-.256l-.778-1.282h-.002l-.006.003l-.034.011c-.037.01-.097.021-.194.03c-.203.017-.477.018-.908.018zm1.257-1.682a.3.3 0 0 1-.113.12l.778 1.282c.303-.184.552-.453.701-.782zM11 2.75c.51 0 .64.005.74.028l.337-1.462c-.307-.07-.646-.066-1.077-.066zm2.959.713c-.086-.37-.155-.7-.308-.981l-1.318.716c.031.058.058.143.164.603zm-2.219-.685c.283.065.49.23.593.42l1.318-.716a2.4 2.4 0 0 0-1.574-1.166zM11 1.25c-.431 0-.77-.005-1.077.066l.337 1.462c.1-.023.23-.028.74-.028zM9.503 3.8c.106-.459.133-.544.164-.602L8.35 2.482c-.152.28-.222.61-.308.98zm.42-2.484a2.4 2.4 0 0 0-1.574 1.166l1.318.716a.9.9 0 0 1 .593-.42z"/><path stroke="currentColor" d="M7.5 18c.917-.977 2.223-1.488 3.531-1.5M13 12c0 1.105-.881 2-1.969 2c-1.087 0-1.968-.895-1.968-2s.881-2 1.968-2C12.12 10 13 10.895 13 12"/><path stroke="currentColor" d="M8.5 4.002c-2.644.01-4.059.102-4.975.97C2.5 5.943 2.5 7.506 2.5 10.632v4.737c0 3.126 0 4.69 1.025 5.66c1.025.972 2.675.972 5.975.972h2m2-18c2.644.01 4.059.103 4.975.97c1.025.972 1.025 2.535 1.025 5.661v.869"/><path stroke="currentColor" d="M8.772 3.632c.096-.415.144-.623.236-.792a1.64 1.64 0 0 1 1.083-.793C10.294 2 10.53 2 11 2s.706 0 .909.047a1.64 1.64 0 0 1 1.083.793c.092.17.14.377.236.792l.083.36c.17.735.255 1.103.127 1.386a1.03 1.03 0 0 1-.407.451C12.75 6 12.332 6 11.498 6h-.996c-.834 0-1.252 0-1.533-.17a1.03 1.03 0 0 1-.407-.452c-.128-.283-.043-.65.127-1.386z"/></g></svg>