<svg xmlns="http://www.w3.org/2000/svg" width="32" height="32" viewBox="0 0 24 24"><g fill="none" fill-rule="evenodd"><path d="m12.594 23.258l-.012.002l-.071.035l-.02.004l-.014-.004l-.071-.036q-.016-.004-.024.006l-.004.01l-.017.428l.005.02l.01.013l.104.074l.015.004l.012-.004l.104-.074l.012-.016l.004-.017l-.017-.427q-.004-.016-.016-.018m.264-.113l-.014.002l-.184.093l-.01.01l-.003.011l.018.43l.005.012l.008.008l.201.092q.019.005.029-.008l.004-.014l-.034-.614q-.005-.019-.02-.022m-.715.002a.02.02 0 0 0-.027.006l-.006.014l-.034.614q.001.018.017.024l.015-.002l.201-.093l.01-.008l.003-.011l.018-.43l-.003-.012l-.01-.01z"/><path fill="currentColor" d="M19 4a3 3 0 0 1 2.995 2.824L22 7v10a3 3 0 0 1-2.824 2.995L19 20H5a3 3 0 0 1-2.995-2.824L2 17V7a3 3 0 0 1 2.824-2.995L5 4zm1 6H4v7a1 1 0 0 0 .883.993L5 18h14a1 1 0 0 0 .993-.883L20 17zm-5.293 1.464l1.828 1.829a1 1 0 0 1 0 1.414l-1.828 1.828a1 1 0 1 1-1.414-1.414l.12-.121H9a1 1 0 1 1 0-2h4.414l-.121-.121a1 1 0 0 1 1.414-1.415M19 6H5a1 1 0 0 0-1 1v1h16V7a1 1 0 0 0-1-1"/></g></svg>