<svg xmlns="http://www.w3.org/2000/svg" width="32" height="32" viewBox="0 0 24 24"><g fill="none" stroke="currentColor" stroke-linecap="round" stroke-linejoin="round" stroke-width="1.5" color="currentColor"><path d="M12 2v4M8 4v2m8-2v2m3 .5c.774.166 1.359.443 1.828.905C22 8.558 22 10.415 22 14.126s0 5.568-1.172 6.72C19.657 22 17.771 22 14 22h-4c-3.771 0-5.657 0-6.828-1.153S2 17.837 2 14.126s0-5.568 1.172-6.72c.47-.463 1.054-.74 1.828-.906M18.5 14h-.009M5.51 14h-.009"/><path d="M14.5 14a2.5 2.5 0 1 1-5 0a2.5 2.5 0 0 1 5 0"/></g></svg>