<svg xmlns="http://www.w3.org/2000/svg" width="32" height="32" viewBox="0 0 24 24"><g fill="none" stroke="currentColor" stroke-linecap="round" stroke-linejoin="round" stroke-width="1.5" color="currentColor"><path d="M13.5 15H6c-1.886 0-2.828 0-3.414-.586S2 12.886 2 11V7c0-1.886 0-2.828.586-3.414S4.114 3 6 3h12c1.886 0 2.828 0 3.414.586S22 5.114 22 7v5c0 .932 0 1.398-.152 1.765a2 2 0 0 1-1.083 1.083C20.398 15 19.932 15 19 15"/><path d="M14 9a2 2 0 1 1-4 0a2 2 0 0 1 4 0m-1 8a3 3 0 0 1 3-3v-2a3 3 0 0 1 3-3v5.5c0 2.335 0 3.502-.472 4.386a4 4 0 0 1-1.642 1.642C16.002 21 14.835 21 12.5 21H12c-1.864 0-2.796 0-3.53-.305a4 4 0 0 1-2.166-2.164C6 17.796 6 16.864 6 15"/></g></svg>