<svg xmlns="http://www.w3.org/2000/svg" width="32" height="32" viewBox="0 0 24 24">    <defs>        <linearGradient id="gradient" x1="3.5" y1="13.5" x2="24.5" y2="13.5" gradientUnits="userSpaceOnUse">            <stop stop-color="#00C0FF"/>            <stop offset="1" stop-color="#5558FF"/>        </linearGradient>    </defs>    <g fill="none" stroke="url(#gradient)" stroke-linecap="round" stroke-linejoin="round" stroke-width="1.5">        <path d="M19.745 13a7 7 0 1 0-12.072-1"/>        <path d="M14 6c-1.105 0-2 .672-2 1.5S12.895 9 14 9s2 .672 2 1.5s-.895 1.5-2 1.5m0-6c.87 0 1.612.417 1.886 1M14 6V5m0 7c-.87 0-1.612-.417-1.886-1M14 12v1"/>        <path d="M3 14h2.395c.294 0 .584.066.847.194l2.042.988c.263.127.553.193.848.193h1.042c1.008 0 1.826.791 1.826 1.767c0 .04-.027.074-.066.085l-2.541.703a1.95 1.95 0 0 1-1.368-.124L5.842 16.75"/>        <path d="M12 16.5l4.593-1.411a1.985 1.985 0 0 1 2.204.753c.369.51.219 1.242-.319 1.552l-7.515 4.337a2 2 0 0 1-1.568.187L3 20.02"/>    </g></svg>