<svg xmlns="http://www.w3.org/2000/svg" width="32" height="32" viewBox="0 0 24 24"><g fill="none" stroke="currentColor" stroke-linecap="round" stroke-linejoin="round" stroke-width="1.5" color="currentColor"><path d="M20 10c-.036-2.48-.22-3.885-1.163-4.828C17.664 4 15.777 4 12.004 4s-5.66 0-6.832 1.172S4 8.229 4 12s0 5.657 1.172 6.828C6.235 19.891 7.886 19.99 11 20"/><path d="M18 19.714V21m0-1.286a3.36 3.36 0 0 1-2.774-1.43M18 19.713a3.36 3.36 0 0 0 2.774-1.43M18 13.285c1.157 0 2.176.568 2.774 1.43M18 13.287a3.36 3.36 0 0 0-2.774 1.43M18 13.287V12m4 1.929l-1.226.788M14 19.07l1.226-.788M14 13.93l1.226.788M22 19.07l-1.226-.788m0-3.566a3.12 3.12 0 0 1 0 3.566m-5.548-3.566a3.12 3.12 0 0 0 0 3.566M9.5 2v2m5-2v2m-5 16v2M4 9.5H2m2 5H2m20-5h-2M12 8H8"/></g></svg>
