<svg xmlns="http://www.w3.org/2000/svg" width="32" height="32" viewBox="0 0 24 24">    <path fill="url(#paint0_linear_6415_124)"          d="M21 12.22C21 6.73 16.74 3 12 3c-4.69 0-9 3.65-9 9.28c-.6.34-1 .98-1 1.72v2c0 1.1.9 2 2 2h1v-6.1c0-3.87 3.13-7 7-7s7 3.13 7 7V19h-8v2h8c1.1 0 2-.9 2-2v-1.22c.59-.31 1-.92 1-1.64v-2.3c0-.7-.41-1.31-1-1.62"/>    <circle cx="9" cy="13" r="1" fill="url(#paint0_linear_6415_124)"/>    <circle cx="15" cy="13" r="1" fill="url(#paint0_linear_6415_124)"/>    <path fill="url(#paint0_linear_6415_124)" d="M18 11.03A6.04 6.04 0 0 0 12.05 6c-3.03 0-6.29 2.51-6.03 6.45a8.07 8.07 0 0 0 4.86-5.89c1.31 2.63 4 4.44 7.12 4.47 " />    <defs>        <linearGradient id="paint0_linear_6415_124" x1="3.53955" y1="13.5625" x2="24.4608" y2="13.5625" gradientUnits="userSpaceOnUse">            <stop stop-color="#00C0FF"/>            <stop offset="1" stop-color="#5558FF"/>        </linearGradient>    </defs></svg>