<svg xmlns="http://www.w3.org/2000/svg" width="32" height="32" viewBox="0 0 24 24"><!-- Icon from Material Symbols Light by Google - https://github.com/google/material-design-icons/blob/master/LICENSE --><path fill="currentColor" d="M5 19V5v4.187v-.571zm3-6.5h4.025q.213 0 .356-.144t.144-.357t-.144-.356t-.356-.143H8q-.213 0-.356.144t-.144.357t.144.356T8 12.5m0 4h4.025q.213 0 .356-.144t.144-.357t-.144-.356t-.356-.143H8q-.213 0-.356.144t-.144.357t.144.356T8 16.5m0-8h8q.213 0 .356-.144t.144-.357t-.144-.356T16 7.5H8q-.213 0-.356.144t-.144.357t.144.356T8 8.5M5.616 20q-.691 0-1.153-.462T4 18.384V5.616q0-.691.463-1.153T5.616 4h12.769q.69 0 1.153.463T20 5.616v3.488q0 .212-.144.356t-.357.144t-.356-.144T19 9.104V5.616q0-.231-.192-.424T18.384 5H5.616q-.231 0-.424.192T5 5.616v12.769q0 .23.192.423t.423.192H9.5q.213 0 .356.144t.144.357t-.144.356T9.5 20zm11.269-5q-.82 0-1.41-.59t-.59-1.41t.59-1.41t1.41-.59q.819 0 1.41.59q.59.59.59 1.41t-.59 1.41t-1.41.59m0 2q.916 0 1.821.178t1.786.534q.428.166.66.544q.232.379.232.844v.092q0 .344-.232.576t-.575.232h-7.385q-.343 0-.575-.232t-.232-.576V19.1q0-.465.232-.844t.66-.544q.845-.356 1.748-.534q.904-.178 1.86-.178"/></svg>