<svg width="28" height="28" viewBox="0 0 28 28" fill="none" xmlns="http://www.w3.org/2000/svg">    <path d="M25.8431 17.6181C25.9536 17.6099 26.0569 17.5603 26.1324 17.4792C26.2079 17.3981 26.2499 17.2914 26.25 17.1806V16.0475C26.2494 15.3515 25.9727 14.6841 25.4805 14.192C24.9884 13.6998 24.321 13.4231 23.625 13.4225H20.2475C20.2431 13.8329 20.2506 14.6475 20.2475 15.0544C20.2458 15.1589 20.2067 15.2594 20.1374 15.3376C20.068 15.4159 19.973 15.4667 19.8694 15.481C19.7658 15.4953 19.6605 15.472 19.5726 15.4154C19.4847 15.3588 19.4199 15.2727 19.39 15.1725C19.3441 14.7149 19.3865 13.8862 19.3725 13.4225C19.3725 13.4225 5.04787 13.4181 4.52375 13.4225C4.16711 13.4039 3.8104 13.4579 3.47528 13.5813C3.14016 13.7047 2.8336 13.895 2.57422 14.1404C2.31483 14.3859 2.10802 14.6815 1.96634 15.0094C1.82466 15.3372 1.75106 15.6904 1.75 16.0475V17.1719C1.75035 17.2878 1.79655 17.3989 1.87852 17.4808C1.9605 17.5628 2.07157 17.609 2.1875 17.6094C2.6818 17.6094 3.15585 17.8057 3.50537 18.1552C3.85489 18.5048 4.05125 18.9788 4.05125 19.4731C4.05125 19.9674 3.85489 20.4415 3.50537 20.791C3.15585 21.1405 2.6818 21.3369 2.1875 21.3369C2.07157 21.3372 1.9605 21.3834 1.87852 21.4654C1.79655 21.5474 1.75035 21.6584 1.75 21.7744V22.8987C1.75058 23.5948 2.02733 24.2621 2.51948 24.7542C3.01164 25.2464 3.67898 25.5232 4.375 25.5237H19.3725C19.3725 25.5237 19.3458 23.8481 19.3944 23.7737C19.4212 23.6844 19.4762 23.6061 19.551 23.5504C19.6259 23.4947 19.7167 23.4647 19.81 23.4647C19.9033 23.4647 19.9941 23.4947 20.069 23.5504C20.1438 23.6061 20.1988 23.6844 20.2256 23.7737C20.2799 23.9006 20.2475 25.5237 20.2475 25.5237H23.625C24.321 25.5232 24.9884 25.2464 25.4805 24.7542C25.9727 24.2621 26.2494 23.5948 26.25 22.8987V21.7656C26.2499 21.6548 26.2079 21.5482 26.1324 21.467C26.0569 21.3859 25.9536 21.3363 25.8431 21.3281C23.5532 21.1356 23.5629 17.8075 25.8431 17.6181ZM19.81 16.7694C19.8675 16.7692 19.9245 16.7804 19.9776 16.8023C20.0308 16.8242 20.0791 16.8565 20.1197 16.8971C20.1604 16.9378 20.1926 16.9861 20.2146 17.0392C20.2365 17.0924 20.2477 17.1494 20.2475 17.2069V18.3969C20.2475 18.5129 20.2014 18.6242 20.1194 18.7062C20.0373 18.7883 19.926 18.8344 19.81 18.8344C19.694 18.8344 19.5827 18.7883 19.5006 18.7062C19.4186 18.6242 19.3725 18.5129 19.3725 18.3969V17.2069C19.3719 17.1492 19.3828 17.0921 19.4046 17.0387C19.4264 16.9854 19.4586 16.9369 19.4993 16.8962C19.5401 16.8555 19.5885 16.8233 19.6419 16.8015C19.6952 16.7797 19.7524 16.7688 19.81 16.7694ZM10.2812 21.7831C10.2405 21.8236 10.1921 21.8557 10.1389 21.8775C10.0857 21.8993 10.0288 21.9104 9.97127 21.9102C9.91378 21.91 9.8569 21.8985 9.80387 21.8763C9.75084 21.8541 9.70269 21.8217 9.66219 21.7809C9.62168 21.7401 9.58961 21.6918 9.5678 21.6386C9.54599 21.5854 9.53487 21.5284 9.53507 21.4709C9.53527 21.4135 9.5468 21.3566 9.56898 21.3035C9.59117 21.2505 9.62358 21.2024 9.66438 21.1619L14.0131 16.8131C14.0957 16.7311 14.2074 16.6851 14.3238 16.6851C14.4401 16.6851 14.5518 16.7311 14.6344 16.8131C14.6749 16.8536 14.7071 16.9017 14.7291 16.9546C14.751 17.0075 14.7623 17.0642 14.7623 17.1215C14.7623 17.1788 14.751 17.2356 14.7291 17.2885C14.7071 17.3414 14.6749 17.3895 14.6344 17.43L10.2812 21.7831ZM13.5188 21.7437C13.5188 22.0593 13.3934 22.362 13.1702 22.5852C12.947 22.8084 12.6444 22.9337 12.3288 22.9337C12.0131 22.9337 11.7105 22.8084 11.4873 22.5852C11.2641 22.362 11.1388 22.0593 11.1388 21.7437C11.1388 21.4281 11.2641 21.1254 11.4873 20.9023C11.7105 20.6791 12.0131 20.5537 12.3288 20.5537C12.6444 20.5537 12.947 20.6791 13.1702 20.9023C13.3934 21.1254 13.5188 21.4281 13.5188 21.7437ZM10.5875 17.0494C10.5875 16.7332 10.7131 16.4299 10.9367 16.2064C11.1603 15.9828 11.4635 15.8572 11.7797 15.8572C12.0959 15.8572 12.3991 15.9828 12.6227 16.2064C12.8463 16.4299 12.9719 16.7332 12.9719 17.0494C12.9719 17.3655 12.8463 17.6688 12.6227 17.8924C12.3991 18.1159 12.0959 18.2415 11.7797 18.2415C11.4635 18.2415 11.1603 18.1159 10.9367 17.8924C10.7131 17.6688 10.5875 17.3655 10.5875 17.0494ZM19.81 22.1812C19.7525 22.1814 19.6955 22.1702 19.6424 22.1483C19.5892 22.1264 19.5409 22.0941 19.5003 22.0535C19.4596 22.0128 19.4274 21.9645 19.4054 21.9114C19.3835 21.8582 19.3723 21.8012 19.3725 21.7437V20.5494C19.3725 20.4333 19.4186 20.322 19.5006 20.24C19.5827 20.158 19.694 20.1119 19.81 20.1119C19.926 20.1119 20.0373 20.158 20.1194 20.24C20.2014 20.322 20.2475 20.4333 20.2475 20.5494V21.7437C20.2472 21.8597 20.2009 21.9707 20.119 22.0527C20.037 22.1347 19.9259 22.1809 19.81 22.1812ZM18.0075 12.5475C17.7962 12.3335 17.3714 11.9131 17.1631 11.7031C17.0807 11.6213 17.0342 11.5101 17.0338 11.394C17.0334 11.2779 17.0791 11.1664 17.1609 11.084C17.2427 11.0017 17.3539 10.9552 17.47 10.9547C17.5861 10.9543 17.6976 11.0001 17.78 11.0819C18.0119 11.315 18.5412 11.8427 18.7775 12.0794C18.7775 12.0794 20.699 10.153 20.7156 10.1237C21.1025 9.70509 21.3125 9.15314 21.3019 8.58324C21.2913 8.01333 21.0609 7.46958 20.6588 7.06561L20.0113 6.41374C19.9332 6.33394 19.8275 6.28717 19.7159 6.2831C19.6044 6.27903 19.4955 6.31797 19.4119 6.39186C19.1388 6.63034 18.7854 6.75627 18.423 6.74423C18.0607 6.73218 17.7164 6.58305 17.4598 6.32696C17.2031 6.07088 17.0532 5.72693 17.0404 5.3646C17.0276 5.00227 17.1527 4.64858 17.3906 4.37499C17.4641 4.29141 17.5031 4.18308 17.4999 4.07185C17.4967 3.96062 17.4513 3.85476 17.3731 3.77561L16.7213 3.12811C16.3052 2.71438 15.7426 2.48178 15.1559 2.48096C14.5692 2.48014 14.0059 2.71117 13.5887 3.12374L11.7075 5.00936C11.949 5.24998 12.4666 5.7693 12.7006 6.00249C12.7824 6.08487 12.8282 6.19637 12.8277 6.31247C12.8273 6.42857 12.7808 6.53975 12.6984 6.62155C12.6161 6.70335 12.5045 6.74908 12.3885 6.74867C12.2724 6.74826 12.1612 6.70174 12.0794 6.61936C11.8475 6.39011 11.3221 5.85942 11.0863 5.62624L4.15625 12.5562C4.22625 12.5519 18.0075 12.5475 18.0075 12.5475ZM14.6212 8.54436C14.539 8.62532 14.4282 8.67069 14.3128 8.67069C14.1974 8.67069 14.0866 8.62532 14.0044 8.54436L13.3175 7.85748C13.2769 7.81701 13.2448 7.76893 13.2228 7.71601C13.2009 7.66308 13.1896 7.60635 13.1896 7.54905C13.1896 7.49175 13.2009 7.43501 13.2228 7.38209C13.2448 7.32916 13.2769 7.28108 13.3175 7.24061C13.4001 7.15864 13.5118 7.11265 13.6281 7.11265C13.7445 7.11265 13.8561 7.15864 13.9388 7.24061L14.6212 7.92311C14.7032 8.00571 14.7492 8.11737 14.7492 8.23374C14.7492 8.3501 14.7032 8.46176 14.6212 8.54436ZM16.5419 10.465C16.5014 10.5055 16.4533 10.5376 16.4004 10.5595C16.3474 10.5815 16.2907 10.5927 16.2334 10.5927C16.1762 10.5927 16.1194 10.5815 16.0665 10.5595C16.0136 10.5376 15.9655 10.5055 15.925 10.465L15.2381 9.77811C15.1976 9.73764 15.1654 9.68956 15.1434 9.63663C15.1215 9.58371 15.1102 9.52697 15.1102 9.46967C15.1102 9.41237 15.1215 9.35564 15.1434 9.30271C15.1654 9.24979 15.1976 9.20171 15.2381 9.16124C15.3207 9.07927 15.4324 9.03327 15.5487 9.03327C15.6651 9.03327 15.7768 9.07927 15.8594 9.16124L16.5419 9.84811C16.5834 9.88803 16.6164 9.93593 16.639 9.98893C16.6616 10.0419 16.6732 10.0989 16.6732 10.1565C16.6732 10.2142 16.6616 10.2712 16.639 10.3242C16.6164 10.3772 16.5834 10.4251 16.5419 10.465ZM11.2831 17.0494C11.2831 16.9177 11.3354 16.7914 11.4286 16.6982C11.5217 16.6051 11.648 16.5528 11.7797 16.5528C11.9114 16.5528 12.0377 16.6051 12.1308 16.6982C12.2239 16.7914 12.2762 16.9177 12.2762 17.0494C12.2762 17.1811 12.2239 17.3074 12.1308 17.4005C12.0377 17.4936 11.9114 17.5459 11.7797 17.5459C11.648 17.5459 11.5217 17.4936 11.4286 17.4005C11.3354 17.3074 11.2831 17.1811 11.2831 17.0494ZM12.8249 21.7437C12.8195 21.8717 12.7649 21.9927 12.6724 22.0813C12.58 22.17 12.4568 22.2195 12.3288 22.2195C12.2007 22.2195 12.0775 22.17 11.9851 22.0813C11.8926 21.9927 11.838 21.8717 11.8326 21.7437C11.838 21.6158 11.8926 21.4948 11.9851 21.4062C12.0775 21.3175 12.2007 21.268 12.3288 21.268C12.4568 21.268 12.58 21.3175 12.6724 21.4062C12.7649 21.4948 12.8195 21.6158 12.8249 21.7437Z" fill="url(#paint0_linear_6415_129)"/>    <path d="M25.8431 17.6181C25.9536 17.6099 26.0569 17.5603 26.1324 17.4792C26.2079 17.3981 26.2499 17.2914 26.25 17.1806V16.0475C26.2494 15.3515 25.9727 14.6841 25.4805 14.192C24.9884 13.6998 24.321 13.4231 23.625 13.4225H20.2475C20.2431 13.8329 20.2506 14.6475 20.2475 15.0544C20.2458 15.1589 20.2067 15.2594 20.1374 15.3376C20.068 15.4159 19.973 15.4667 19.8694 15.481C19.7658 15.4953 19.6605 15.472 19.5726 15.4154C19.4847 15.3588 19.4199 15.2727 19.39 15.1725C19.3441 14.7149 19.3865 13.8862 19.3725 13.4225C19.3725 13.4225 5.04787 13.4181 4.52375 13.4225C4.16711 13.4039 3.8104 13.4579 3.47528 13.5813C3.14016 13.7047 2.8336 13.895 2.57422 14.1404C2.31483 14.3859 2.10802 14.6815 1.96634 15.0094C1.82466 15.3372 1.75106 15.6904 1.75 16.0475V17.1719C1.75035 17.2878 1.79655 17.3989 1.87852 17.4808C1.9605 17.5628 2.07157 17.609 2.1875 17.6094C2.6818 17.6094 3.15585 17.8057 3.50537 18.1552C3.85489 18.5048 4.05125 18.9788 4.05125 19.4731C4.05125 19.9674 3.85489 20.4415 3.50537 20.791C3.15585 21.1405 2.6818 21.3369 2.1875 21.3369C2.07157 21.3372 1.9605 21.3834 1.87852 21.4654C1.79655 21.5474 1.75035 21.6584 1.75 21.7744V22.8987C1.75058 23.5948 2.02733 24.2621 2.51948 24.7542C3.01164 25.2464 3.67898 25.5232 4.375 25.5237H19.3725C19.3725 25.5237 19.3458 23.8481 19.3944 23.7737C19.4212 23.6844 19.4762 23.6061 19.551 23.5504C19.6259 23.4947 19.7167 23.4647 19.81 23.4647C19.9033 23.4647 19.9941 23.4947 20.069 23.5504C20.1438 23.6061 20.1988 23.6844 20.2256 23.7737C20.2799 23.9006 20.2475 25.5237 20.2475 25.5237H23.625C24.321 25.5232 24.9884 25.2464 25.4805 24.7542C25.9727 24.2621 26.2494 23.5948 26.25 22.8987V21.7656C26.2499 21.6548 26.2079 21.5482 26.1324 21.467C26.0569 21.3859 25.9536 21.3363 25.8431 21.3281C23.5532 21.1356 23.5629 17.8075 25.8431 17.6181ZM19.81 16.7694C19.8675 16.7692 19.9245 16.7804 19.9776 16.8023C20.0308 16.8242 20.0791 16.8565 20.1197 16.8971C20.1604 16.9378 20.1926 16.9861 20.2146 17.0392C20.2365 17.0924 20.2477 17.1494 20.2475 17.2069V18.3969C20.2475 18.5129 20.2014 18.6242 20.1194 18.7062C20.0373 18.7883 19.926 18.8344 19.81 18.8344C19.694 18.8344 19.5827 18.7883 19.5006 18.7062C19.4186 18.6242 19.3725 18.5129 19.3725 18.3969V17.2069C19.3719 17.1492 19.3828 17.0921 19.4046 17.0387C19.4264 16.9854 19.4586 16.9369 19.4993 16.8962C19.5401 16.8555 19.5885 16.8233 19.6419 16.8015C19.6952 16.7797 19.7524 16.7688 19.81 16.7694ZM10.2812 21.7831C10.2405 21.8236 10.1921 21.8557 10.1389 21.8775C10.0857 21.8993 10.0288 21.9104 9.97127 21.9102C9.91378 21.91 9.8569 21.8985 9.80387 21.8763C9.75084 21.8541 9.70269 21.8217 9.66219 21.7809C9.62168 21.7401 9.58961 21.6918 9.5678 21.6386C9.54599 21.5854 9.53487 21.5284 9.53507 21.4709C9.53527 21.4135 9.5468 21.3566 9.56898 21.3035C9.59117 21.2505 9.62358 21.2024 9.66438 21.1619L14.0131 16.8131C14.0957 16.7311 14.2074 16.6851 14.3238 16.6851C14.4401 16.6851 14.5518 16.7311 14.6344 16.8131C14.6749 16.8536 14.7071 16.9017 14.7291 16.9546C14.751 17.0075 14.7623 17.0642 14.7623 17.1215C14.7623 17.1788 14.751 17.2356 14.7291 17.2885C14.7071 17.3414 14.6749 17.3895 14.6344 17.43L10.2812 21.7831ZM13.5188 21.7437C13.5188 22.0593 13.3934 22.362 13.1702 22.5852C12.947 22.8084 12.6444 22.9337 12.3288 22.9337C12.0131 22.9337 11.7105 22.8084 11.4873 22.5852C11.2641 22.362 11.1388 22.0593 11.1388 21.7437C11.1388 21.4281 11.2641 21.1254 11.4873 20.9023C11.7105 20.6791 12.0131 20.5537 12.3288 20.5537C12.6444 20.5537 12.947 20.6791 13.1702 20.9023C13.3934 21.1254 13.5188 21.4281 13.5188 21.7437ZM10.5875 17.0494C10.5875 16.7332 10.7131 16.4299 10.9367 16.2064C11.1603 15.9828 11.4635 15.8572 11.7797 15.8572C12.0959 15.8572 12.3991 15.9828 12.6227 16.2064C12.8463 16.4299 12.9719 16.7332 12.9719 17.0494C12.9719 17.3655 12.8463 17.6688 12.6227 17.8924C12.3991 18.1159 12.0959 18.2415 11.7797 18.2415C11.4635 18.2415 11.1603 18.1159 10.9367 17.8924C10.7131 17.6688 10.5875 17.3655 10.5875 17.0494ZM19.81 22.1812C19.7525 22.1814 19.6955 22.1702 19.6424 22.1483C19.5892 22.1264 19.5409 22.0941 19.5003 22.0535C19.4596 22.0128 19.4274 21.9645 19.4054 21.9114C19.3835 21.8582 19.3723 21.8012 19.3725 21.7437V20.5494C19.3725 20.4333 19.4186 20.322 19.5006 20.24C19.5827 20.158 19.694 20.1119 19.81 20.1119C19.926 20.1119 20.0373 20.158 20.1194 20.24C20.2014 20.322 20.2475 20.4333 20.2475 20.5494V21.7437C20.2472 21.8597 20.2009 21.9707 20.119 22.0527C20.037 22.1347 19.9259 22.1809 19.81 22.1812ZM18.0075 12.5475C17.7962 12.3335 17.3714 11.9131 17.1631 11.7031C17.0807 11.6213 17.0342 11.5101 17.0338 11.394C17.0334 11.2779 17.0791 11.1664 17.1609 11.084C17.2427 11.0017 17.3539 10.9552 17.47 10.9547C17.5861 10.9543 17.6976 11.0001 17.78 11.0819C18.0119 11.315 18.5412 11.8427 18.7775 12.0794C18.7775 12.0794 20.699 10.153 20.7156 10.1237C21.1025 9.70509 21.3125 9.15314 21.3019 8.58324C21.2913 8.01333 21.0609 7.46958 20.6588 7.06561L20.0113 6.41374C19.9332 6.33394 19.8275 6.28717 19.7159 6.2831C19.6044 6.27903 19.4955 6.31797 19.4119 6.39186C19.1388 6.63034 18.7854 6.75627 18.423 6.74423C18.0607 6.73218 17.7164 6.58305 17.4598 6.32696C17.2031 6.07088 17.0532 5.72693 17.0404 5.3646C17.0276 5.00227 17.1527 4.64858 17.3906 4.37499C17.4641 4.29141 17.5031 4.18308 17.4999 4.07185C17.4967 3.96062 17.4513 3.85476 17.3731 3.77561L16.7213 3.12811C16.3052 2.71438 15.7426 2.48178 15.1559 2.48096C14.5692 2.48014 14.0059 2.71117 13.5887 3.12374L11.7075 5.00936C11.949 5.24998 12.4666 5.7693 12.7006 6.00249C12.7824 6.08487 12.8282 6.19637 12.8277 6.31247C12.8273 6.42857 12.7808 6.53975 12.6984 6.62155C12.6161 6.70335 12.5045 6.74908 12.3885 6.74867C12.2724 6.74826 12.1612 6.70174 12.0794 6.61936C11.8475 6.39011 11.3221 5.85942 11.0863 5.62624L4.15625 12.5562C4.22625 12.5519 18.0075 12.5475 18.0075 12.5475ZM14.6212 8.54436C14.539 8.62532 14.4282 8.67069 14.3128 8.67069C14.1974 8.67069 14.0866 8.62532 14.0044 8.54436L13.3175 7.85748C13.2769 7.81701 13.2448 7.76893 13.2228 7.71601C13.2009 7.66308 13.1896 7.60635 13.1896 7.54905C13.1896 7.49175 13.2009 7.43501 13.2228 7.38209C13.2448 7.32916 13.2769 7.28108 13.3175 7.24061C13.4001 7.15864 13.5118 7.11265 13.6281 7.11265C13.7445 7.11265 13.8561 7.15864 13.9388 7.24061L14.6212 7.92311C14.7032 8.00571 14.7492 8.11737 14.7492 8.23374C14.7492 8.3501 14.7032 8.46176 14.6212 8.54436ZM16.5419 10.465C16.5014 10.5055 16.4533 10.5376 16.4004 10.5595C16.3474 10.5815 16.2907 10.5927 16.2334 10.5927C16.1762 10.5927 16.1194 10.5815 16.0665 10.5595C16.0136 10.5376 15.9655 10.5055 15.925 10.465L15.2381 9.77811C15.1976 9.73764 15.1654 9.68956 15.1434 9.63663C15.1215 9.58371 15.1102 9.52697 15.1102 9.46967C15.1102 9.41237 15.1215 9.35564 15.1434 9.30271C15.1654 9.24979 15.1976 9.20171 15.2381 9.16124C15.3207 9.07927 15.4324 9.03327 15.5487 9.03327C15.6651 9.03327 15.7768 9.07927 15.8594 9.16124L16.5419 9.84811C16.5834 9.88803 16.6164 9.93593 16.639 9.98893C16.6616 10.0419 16.6732 10.0989 16.6732 10.1565C16.6732 10.2142 16.6616 10.2712 16.639 10.3242C16.6164 10.3772 16.5834 10.4251 16.5419 10.465ZM11.2831 17.0494C11.2831 16.9177 11.3354 16.7914 11.4286 16.6982C11.5217 16.6051 11.648 16.5528 11.7797 16.5528C11.9114 16.5528 12.0377 16.6051 12.1308 16.6982C12.2239 16.7914 12.2762 16.9177 12.2762 17.0494C12.2762 17.1811 12.2239 17.3074 12.1308 17.4005C12.0377 17.4936 11.9114 17.5459 11.7797 17.5459C11.648 17.5459 11.5217 17.4936 11.4286 17.4005C11.3354 17.3074 11.2831 17.1811 11.2831 17.0494ZM12.8249 21.7437C12.8195 21.8717 12.7649 21.9927 12.6724 22.0813C12.58 22.17 12.4568 22.2195 12.3288 22.2195C12.2007 22.2195 12.0775 22.17 11.9851 22.0813C11.8926 21.9927 11.838 21.8717 11.8326 21.7437C11.838 21.6158 11.8926 21.4948 11.9851 21.4062C12.0775 21.3175 12.2007 21.268 12.3288 21.268C12.4568 21.268 12.58 21.3175 12.6724 21.4062C12.7649 21.4948 12.8195 21.6158 12.8249 21.7437Z" fill="url(#paint1_linear_6415_129)"/>    <defs>        <linearGradient id="paint0_linear_6415_129" x1="1.75" y1="14.0022" x2="26.25" y2="14.0022" gradientUnits="userSpaceOnUse">            <stop stop-color="#FFA68D"/>            <stop offset="1" stop-color="#FD3A84"/>        </linearGradient>        <linearGradient id="paint1_linear_6415_129" x1="1.75" y1="14.0022" x2="26.25" y2="14.0022" gradientUnits="userSpaceOnUse">            <stop stop-color="#00C0FF"/>            <stop offset="1" stop-color="#5558FF"/>        </linearGradient>    </defs></svg>