<svg width="28" height="28" viewBox="0 0 28 28" fill="none" xmlns="http://www.w3.org/2000/svg">    <path d="M26.005 6.28034C24.7642 5.98765 22.603 5.34146 21.3544 5.16034L17.0013 6.24971C16.9062 6.27281 16.8217 6.32725 16.7614 6.40423C16.7011 6.48122 16.6684 6.57628 16.6687 6.67409V9.46971C16.6986 10.8746 17.1612 12.2361 17.9936 13.3683C18.8259 14.5006 19.9873 15.3483 21.3194 15.796C21.4105 15.8244 21.5082 15.8244 21.5994 15.796C22.945 15.3455 24.1163 14.4862 24.95 13.338C25.7838 12.1897 26.2382 10.8099 26.25 9.39096V6.67409C26.2496 6.59222 26.2264 6.51208 26.1832 6.44257C26.1399 6.37306 26.0782 6.3169 26.005 6.28034ZM23.4631 9.66221L21.2056 11.9197C21.1653 11.9613 21.117 11.9943 21.0636 12.0168C21.0103 12.0394 20.9529 12.051 20.895 12.051C20.8371 12.051 20.7797 12.0394 20.7264 12.0168C20.673 11.9943 20.6247 11.9613 20.5844 11.9197L19.4556 10.791C19.3738 10.7092 19.3279 10.5982 19.3279 10.4825C19.3279 10.3668 19.3738 10.2559 19.4556 10.1741C19.5374 10.0923 19.6484 10.0463 19.7641 10.0463C19.8797 10.0463 19.9907 10.0923 20.0725 10.1741L20.895 10.9922L22.8463 9.04096C22.9286 8.95916 23.0401 8.91344 23.1562 8.91385C23.2723 8.91426 23.3835 8.96077 23.4653 9.04315C23.5471 9.12553 23.5928 9.23704 23.5924 9.35314C23.592 9.46923 23.5455 9.58041 23.4631 9.66221ZM16.1831 11.7578H1.75V10.3447C1.74994 10.1149 1.79517 9.8873 1.88309 9.67495C1.97102 9.4626 2.09992 9.26966 2.26244 9.10715C2.42495 8.94464 2.61789 8.81573 2.83024 8.72781C3.04258 8.63988 3.27017 8.59466 3.5 8.59471H15.7937V9.48721C15.8075 10.2595 15.9388 11.0251 16.1831 11.7578ZM21.8881 16.6228C21.6134 16.7085 21.3193 16.71 21.0437 16.6272C20.062 16.2998 19.1567 15.7771 18.3823 15.0907C17.6079 14.4042 16.9804 13.5682 16.5375 12.6328H1.75V21.0897C1.75058 21.5537 1.93514 21.9984 2.2632 22.3265C2.59127 22.6546 3.03605 22.8391 3.5 22.8397H21.0569C21.2867 22.8398 21.5143 22.7945 21.7266 22.7066C21.939 22.6187 22.1319 22.4898 22.2944 22.3273C22.457 22.1648 22.5859 21.9718 22.6738 21.7595C22.7617 21.5471 22.8069 21.3195 22.8069 21.0897V16.2466C22.5082 16.3897 22.2014 16.5153 21.8881 16.6228ZM8.3125 20.2147H4.8125C4.69647 20.2147 4.58519 20.1686 4.50314 20.0866C4.42109 20.0045 4.375 19.8932 4.375 19.7772C4.375 19.6612 4.42109 19.5499 4.50314 19.4679C4.58519 19.3858 4.69647 19.3397 4.8125 19.3397H8.3125C8.42853 19.3397 8.53981 19.3858 8.62186 19.4679C8.70391 19.5499 8.75 19.6612 8.75 19.7772C8.75 19.8932 8.70391 20.0045 8.62186 20.0866C8.53981 20.1686 8.42853 20.2147 8.3125 20.2147Z" fill="url(#paint0_linear_6415_135)"/>    <defs>        <linearGradient id="paint0_linear_6415_135" x1="1.75" y1="14" x2="26.25" y2="14" gradientUnits="userSpaceOnUse">            <stop stop-color="#00C0FF"/>            <stop offset="1" stop-color="#5558FF"/>        </linearGradient>    </defs></svg>