<svg width="28" height="28" viewBox="0 0 28 28" fill="none" xmlns="http://www.w3.org/2000/svg">    <path d="M3.73643 10.1325C3.70815 10.1551 3.68181 10.1799 3.65768 10.2069L3.6708 10.1894C3.69158 10.1692 3.71349 10.1502 3.73643 10.1325ZM19.9064 23.3625H10.6446C10.5286 23.3628 10.4175 23.4091 10.3356 23.491C10.2536 23.573 10.2074 23.6841 10.2071 23.8V24.9375C10.2074 25.0534 10.2536 25.1645 10.3356 25.2465C10.4175 25.3284 10.5286 25.3747 10.6446 25.375H19.9064C20.0224 25.3747 20.1334 25.3284 20.2154 25.2465C20.2974 25.1645 20.3436 25.0534 20.3439 24.9375V23.8C20.3436 23.6841 20.2974 23.573 20.2154 23.491C20.1334 23.4091 20.0224 23.3628 19.9064 23.3625ZM4.88705 10.6706C4.66287 10.6691 4.44287 10.7313 4.25268 10.85L3.53955 11.5631V12.2719C3.54025 12.501 3.63187 12.7205 3.7943 12.8821C3.95673 13.0437 4.17667 13.1342 4.4058 13.1337H5.31143L5.9983 12.4513C6.08851 12.2625 6.12965 12.054 6.11792 11.8451C6.10618 11.6362 6.04196 11.4336 5.93118 11.2561C5.82041 11.0786 5.66665 10.9319 5.48415 10.8295C5.30164 10.7272 5.09628 10.6725 4.88705 10.6706ZM4.4058 4.12125C4.63759 4.21538 4.89235 4.2375 5.13689 4.18474C5.38143 4.13197 5.60441 4.00677 5.77676 3.82545C5.94912 3.64412 6.06285 3.41508 6.10315 3.16818C6.14345 2.92128 6.10843 2.66796 6.00268 2.44125L5.31143 1.75H4.4058C4.1762 1.75046 3.95613 1.84188 3.79378 2.00423C3.63143 2.16658 3.54001 2.38665 3.53955 2.61625V3.32938C3.63886 3.4125 4.27718 4.11381 4.4058 4.12125ZM23.5946 1.75H22.4833L21.7789 2.45438C21.1791 3.60238 22.6802 4.62131 23.7608 4.06875L24.4608 3.36875V2.61625C24.4603 2.38665 24.3689 2.16658 24.2066 2.00423C24.0442 1.84188 23.8242 1.75046 23.5946 1.75ZM24.4608 4.60687V10.2812C22.8639 8.90181 20.1217 10.5954 20.8996 12.6087C20.8934 12.6123 20.9083 17.9681 20.8996 18.1825C20.897 18.6413 20.7764 19.0918 20.5496 19.4906L18.8389 22.4875H11.5283C10.9727 21.1531 10.1852 18.3356 12.1671 16.0431C12.5069 15.6485 12.696 15.1463 12.7008 14.6256V9.91375C12.7041 9.67293 12.778 9.43838 12.9133 9.23916C13.0487 9.03995 13.2395 8.88484 13.4622 8.79307C13.6848 8.7013 13.9295 8.67691 14.1659 8.72291C14.4023 8.76892 14.62 8.8833 14.7921 9.05188C14.9059 9.16468 14.9962 9.29894 15.0577 9.44688C15.1193 9.59482 15.151 9.75351 15.1508 9.91375V14.9625C15.1547 15.3332 15.2667 15.6948 15.4729 16.0028C15.6792 16.3109 15.9708 16.5521 16.3121 16.697C16.6533 16.8419 17.0294 16.8841 17.3943 16.8184C17.7592 16.7528 18.097 16.5822 18.3664 16.3275C19.1898 15.6026 18.9229 14.112 18.9877 13.1337H16.0258V10.5612C16.692 10.1207 17.1992 9.47777 17.4725 8.72725C17.7459 7.97673 17.7709 7.15827 17.5441 6.39242C17.3172 5.62657 16.8504 4.95382 16.2124 4.47326C15.5744 3.99271 14.7989 3.72975 14.0002 3.72313C10.4149 3.72706 8.91511 8.372 11.8258 10.4519V13.1337H6.54955L6.6633 13.02C7.99068 11.0569 5.28736 8.70319 3.53955 10.3206V4.5675L3.65768 4.68125C5.53893 6.125 8.07336 3.58969 6.54955 1.75H21.2452L21.1183 1.87687C21.0927 1.90302 21.0706 1.93244 21.0527 1.96437C19.9226 3.90162 22.3442 5.85244 24.2246 4.8125C24.3135 4.75668 24.3932 4.6873 24.4608 4.60687ZM7.93643 7.00437H6.76393C6.64789 7.00437 6.53661 7.05047 6.45457 7.13252C6.37252 7.21456 6.32643 7.32584 6.32643 7.44187C6.32643 7.55791 6.37252 7.66919 6.45457 7.75123C6.53661 7.83328 6.64789 7.87937 6.76393 7.87937H7.93643C8.05246 7.87937 8.16374 7.83328 8.24578 7.75123C8.32783 7.66919 8.37393 7.55791 8.37393 7.44187C8.37393 7.32584 8.32783 7.21456 8.24578 7.13252C8.16374 7.05047 8.05246 7.00437 7.93643 7.00437ZM21.302 7.00437H19.9983C19.8823 7.00437 19.771 7.05047 19.6889 7.13252C19.6069 7.21456 19.5608 7.32584 19.5608 7.44187C19.5608 7.55791 19.6069 7.66919 19.6889 7.75123C19.771 7.83328 19.8823 7.87937 19.9983 7.87937H21.302C21.4181 7.87937 21.5294 7.83328 21.6114 7.75123C21.6935 7.66919 21.7395 7.55791 21.7395 7.44187C21.7395 7.32584 21.6935 7.21456 21.6114 7.13252C21.5294 7.05047 21.4181 7.00437 21.302 7.00437ZM23.5946 10.7494C22.5122 10.3609 21.2137 11.3645 21.7789 12.4338L22.4789 13.1337H23.5946C23.8237 13.1342 24.0436 13.0437 24.206 12.8821C24.3685 12.7205 24.4601 12.501 24.4608 12.2719V11.5194L23.7608 10.8194C23.7083 10.7931 23.6514 10.7712 23.5946 10.7494ZM13.9258 7.81375C14.4069 7.81657 14.8728 7.9832 15.2466 8.2862C15.6203 8.58919 15.8797 9.01047 15.982 9.48063C16.3828 9.0912 16.66 8.59231 16.7789 8.04628C16.8978 7.50024 16.8531 6.93128 16.6505 6.41048C16.4479 5.88968 16.0963 5.44013 15.6397 5.118C15.183 4.79586 14.6416 4.61544 14.083 4.59925C13.5244 4.58307 12.9734 4.73185 12.4989 5.02701C12.0244 5.32216 11.6474 5.75061 11.4149 6.2588C11.1825 6.767 11.105 7.33243 11.1921 7.88443C11.2792 8.43643 11.527 8.95053 11.9046 9.3625C12.0246 8.91822 12.2877 8.52584 12.653 8.24593C13.0183 7.96601 13.4656 7.81414 13.9258 7.81375Z" fill="url(#paint0_linear_6415_124)"/>    <defs>        <linearGradient id="paint0_linear_6415_124" x1="3.53955" y1="13.5625" x2="24.4608" y2="13.5625" gradientUnits="userSpaceOnUse">            <stop stop-color="#00C0FF"/>            <stop offset="1" stop-color="#5558FF"/>        </linearGradient>    </defs></svg>