<svg xmlns="http://www.w3.org/2000/svg" width="32" height="32" viewBox="0 0 24 24"><path fill="currentColor" d="M5.808 16.923q-.213 0-.356-.144q-.144-.144-.144-.357t.144-.356t.356-.143h5.788l-7.55-7.55q-.14-.14-.153-.349t.152-.36q.139-.139.354-.139t.355.14L12 14.905l5.046-5.045q-.119-.283-.179-.52t-.06-.439q0-.766.53-1.295q.528-.529 1.294-.529q.765 0 1.298.529q.533.528.533 1.294t-.531 1.298t-1.299.533q-.165 0-.377-.047q-.213-.047-.47-.161l-5.381 5.4h5.788q.213 0 .357.144t.143.357t-.143.356t-.357.143z"/></svg>