<svg width="165" height="24" viewBox="0 0 165 24" fill="none" xmlns="http://www.w3.org/2000/svg">
<g clip-path="url(#clip0_2537_33265)">
<path d="M53.9961 3.05719C56.1458 3.05719 57.8537 3.70711 59.1191 5.00771C60.3845 6.30831 61.0172 8.08511 61.0172 10.3389V20.6718H58.434V10.8069C58.434 9.15434 58.0035 7.85974 57.1424 6.92304C56.2813 5.98709 55.099 5.51836 53.597 5.51836C52.9845 5.51836 52.4005 5.61645 51.8457 5.81337C51.2908 6.0103 50.7734 6.31055 50.2942 6.71488C49.8143 7.11921 49.4332 7.67404 49.1501 8.37938C48.8671 9.08471 48.7256 9.89337 48.7256 10.8069V20.6718H46.1424V10.8069C46.1424 9.15434 45.7118 7.85974 44.8508 6.92304C43.9897 5.98709 42.8074 5.51836 41.3054 5.51836C40.7041 5.51836 40.1291 5.61346 39.5802 5.80439C39.0314 5.99532 38.517 6.28959 38.037 6.68868C37.5571 7.08776 37.173 7.6396 36.884 8.34418C36.5949 9.04952 36.4504 9.87016 36.4504 10.8061V20.671H33.85V3.42184H36.4504V6.40415C37.0165 5.27127 37.8087 4.43042 38.8255 3.88157C39.8423 3.33273 40.9288 3.05794 42.0848 3.05794C45.0552 3.05794 47.0371 4.30088 48.0315 6.78527C48.5167 5.60597 49.3029 4.69024 50.3893 4.03732C51.4758 3.3844 52.6775 3.05794 53.9954 3.05794L53.9961 3.05719Z" fill="#5F6368"/>
<path d="M65.7531 5.6494C67.4692 3.92126 69.5815 3.05719 72.0898 3.05719C74.5982 3.05719 76.7157 3.92126 78.4438 5.6494C80.172 7.37753 81.036 9.50701 81.036 12.0386C81.036 14.5701 80.172 16.6996 78.4438 18.4277C76.7157 20.1559 74.5974 21.0199 72.0898 21.0199C69.5822 21.0199 67.4692 20.1559 65.7531 18.4277C64.0369 16.6996 63.1781 14.5701 63.1781 12.0386C63.1781 9.50701 64.0362 7.37753 65.7531 5.6494ZM72.0898 5.51911C70.2981 5.51911 68.7901 6.14358 67.5651 7.39176C66.3401 8.63994 65.7276 10.1891 65.7276 12.0386C65.7276 13.888 66.3401 15.4252 67.5651 16.6854C68.7901 17.9455 70.2981 18.5752 72.0898 18.5752C73.8816 18.5752 75.3956 17.9425 76.6326 16.6771C77.8695 15.4117 78.488 13.8655 78.488 12.0393C78.488 10.2131 77.8725 8.65567 76.6416 7.40149C75.4106 6.14732 73.8936 5.52061 72.0906 5.52061L72.0898 5.51911Z" fill="#5F6368"/>
<path d="M91.6917 3.05719C93.9223 3.05719 95.6938 3.7483 97.0057 5.12901C98.3175 6.51047 98.9734 8.38012 98.9734 10.738V20.6725H96.3729V10.9806C96.3729 9.32805 95.896 8.00425 94.9428 7.01064C93.9889 6.01704 92.7265 5.51986 91.1548 5.51986C89.5832 5.51986 88.2392 6.02003 87.2628 7.01963C86.2857 8.01922 85.7975 9.34003 85.7975 10.9813V20.6733H83.197V3.42184H85.7975V6.78527C86.3523 5.60597 87.1377 4.69024 88.1553 4.03732C89.1721 3.3844 90.3514 3.05794 91.6924 3.05794L91.6917 3.05719Z" fill="#5F6368"/>
<path d="M118.176 11.5182C118.176 12.0386 118.164 12.368 118.142 12.5065H103.682C103.81 14.356 104.445 15.8468 105.589 16.9796C106.734 18.1125 108.207 18.6786 110.01 18.6786C111.397 18.6786 112.59 18.3641 113.59 17.7336C114.59 17.1039 115.205 16.2631 115.436 15.2111H118.037C117.701 16.9564 116.789 18.3611 115.298 19.4243C113.807 20.4876 112.021 21.0192 109.94 21.0192C107.432 21.0192 105.337 20.1521 103.655 18.4187C101.974 16.6854 101.133 14.5237 101.133 11.9345C101.133 9.34528 101.983 7.34908 103.682 5.63218C105.381 3.91602 107.455 3.05719 109.906 3.05719C111.443 3.05719 112.842 3.41884 114.101 4.14065C115.361 4.8632 116.355 5.87178 117.084 7.16638C117.812 8.46099 118.176 9.91134 118.176 11.5182ZM103.804 10.3044H115.403C115.275 8.87131 114.694 7.69501 113.66 6.77628C112.626 5.85755 111.34 5.39781 109.803 5.39781C108.265 5.39781 106.971 5.84258 105.884 6.73285C104.798 7.62313 104.105 8.81366 103.804 10.3044Z" fill="#5F6368"/>
<path d="M127.826 3.05719C128.277 3.05719 128.814 3.12682 129.438 3.26535V5.69282C128.871 5.49665 128.311 5.39781 127.756 5.39781C126.404 5.39781 125.268 5.87477 124.35 6.82794C123.431 7.78186 122.971 8.98662 122.971 10.443V20.6718H120.371V3.42184H122.971V6.17877C123.48 5.20763 124.156 4.44539 125 3.89056C125.843 3.33573 126.785 3.05869 127.825 3.05869L127.826 3.05719Z" fill="#5F6368"/>
<path d="M131.139 5.6494C132.855 3.92126 134.968 3.05719 137.476 3.05719C139.984 3.05719 142.102 3.92126 143.83 5.6494C145.558 7.37753 146.422 9.50701 146.422 12.0386C146.422 14.5701 145.558 16.6996 143.83 18.4277C142.102 20.1559 139.984 21.0199 137.476 21.0199C134.968 21.0199 132.855 20.1559 131.139 18.4277C129.423 16.6996 128.564 14.5701 128.564 12.0386C128.564 9.50701 129.422 7.37753 131.139 5.6494ZM137.476 5.51911C135.684 5.51911 134.176 6.14358 132.951 7.39176C131.726 8.63994 131.114 10.1891 131.114 12.0386C131.114 13.888 131.726 15.4252 132.951 16.6854C134.176 17.9455 135.685 18.5752 137.476 18.5752C139.267 18.5752 140.782 17.9425 142.019 16.6771C143.256 15.4117 143.874 13.8655 143.874 12.0393C143.874 10.2131 143.259 8.65567 142.028 7.40149C140.797 6.14732 139.28 5.52061 137.477 5.52061L137.476 5.51911Z" fill="#5F6368"/>
<path d="M149.597 5.6494C151.313 3.92126 153.425 3.05719 155.934 3.05719C158.442 3.05719 160.56 3.92126 162.288 5.6494C164.016 7.37753 164.88 9.50701 164.88 12.0386C164.88 14.5701 164.016 16.6996 162.288 18.4277C160.56 20.1559 158.441 21.0199 155.934 21.0199C153.426 21.0199 151.313 20.1559 149.597 18.4277C147.881 16.6996 147.022 14.5701 147.022 12.0386C147.022 9.50701 147.88 7.37753 149.597 5.6494ZM155.934 5.51911C154.142 5.51911 152.634 6.14358 151.409 7.39176C150.184 8.63994 149.572 10.1891 149.572 12.0386C149.572 13.888 150.184 15.4252 151.409 16.6854C152.634 17.9455 154.143 18.5752 155.934 18.5752C157.725 18.5752 159.24 17.9425 160.477 16.6771C161.714 15.4117 162.332 13.8655 162.332 12.0393C162.332 10.2131 161.717 8.65567 160.486 7.40149C159.255 6.14732 157.738 5.52061 155.935 5.52061L155.934 5.51911Z" fill="#5F6368"/>
<path d="M7.21131 0H0V24H7.21131L11.9996 9.59985L7.21131 0Z" fill="#0074FA"/>
<path d="M16.7999 0L11.9996 9.59985L16.7999 24H24V0H16.7999Z" fill="#FFDC00"/>
</g>
<defs>
<clipPath id="clip0_2537_33265">
<rect width="164.88" height="24" fill="white"/>
</clipPath>
</defs>
</svg>
